<svg width="22" height="19" viewBox="0 0 22 19" fill="none" xmlns="http://www.w3.org/2000/svg">
<path d="M14 17.3005V1.69951C14 0.93703 13.1809 0.455063 12.5144 0.825358L5.22652 4.87416C5.07796 4.95669 4.91082 5 4.74087 5H2.5C2.5 5 0 5 0 7.5V11.5C0 14 2.5 14 2.5 14H4.74087C4.91082 14 5.07796 14.0433 5.22652 14.1258L12.5144 18.1746C13.1809 18.5449 14 18.063 14 17.3005Z" fill="white"/>
<path d="M16.6191 5.85938C17.4762 6.82875 17.999 8.10026 17.999 9.49609C17.999 10.8917 17.4759 12.1625 16.6191 13.1318L15.8711 12.4717C16.5719 11.6785 16.999 10.6378 16.999 9.49609C16.999 8.35414 16.572 7.31298 15.8711 6.51953L16.6191 5.85938Z" fill="white"/>
<path d="M18.1201 4.53906C19.2888 5.86106 19.999 7.59749 19.999 9.50098C19.999 11.4037 19.2889 13.1391 18.1211 14.4609L17.3721 13.7998C18.3839 12.6541 18.999 11.1498 18.999 9.50098C18.999 7.85146 18.3836 6.34633 17.3711 5.2002L18.1201 4.53906Z" fill="white"/>
<path d="M19.6201 3.21875C21.0996 4.89306 21.999 7.0916 21.999 9.50195C21.999 11.9123 21.0996 14.1108 19.6201 15.7852L18.8711 15.125C20.1949 13.6267 20.999 11.6587 20.999 9.50195C20.999 7.34507 20.1949 5.37654 18.8711 3.87793L19.6201 3.21875Z" fill="white"/>
</svg>
