<svg width="22" height="19" viewBox="0 0 22 19" fill="none" xmlns="http://www.w3.org/2000/svg">
<mask id="mask0_2091_1366" style="mask-type:alpha" maskUnits="userSpaceOnUse" x="0" y="0" width="22" height="19">
<rect width="22" height="19" fill="#D9D9D9"/>
</mask>
<g mask="url(#mask0_2091_1366)">
<path d="M12.5146 0.822374C13.181 0.45253 13.9997 0.934319 14 1.6964V17.298L13.9902 17.4376C13.9037 18.0719 13.2371 18.4644 12.6406 18.2316L12.5146 18.172L5.22656 14.1232C5.11505 14.0612 4.99297 14.021 4.86719 14.005L4.74121 13.9972H2.5C2.49994 13.9972 0 13.9972 0 11.4972V7.49718C0.000110306 4.99734 2.5 4.99718 2.5 4.99718H4.74121L4.86719 4.98937C4.95122 4.97867 5.03365 4.95735 5.1123 4.92589L5.22656 4.8712L12.5146 0.822374ZM5.71191 5.74523C5.41492 5.91021 5.08096 5.99712 4.74121 5.99718H2.50488C2.49822 5.99741 2.48417 5.99768 2.46387 5.99913C2.4221 6.00212 2.3555 6.00889 2.27344 6.02257C2.10463 6.05073 1.89491 6.1054 1.69727 6.20421C1.50344 6.30112 1.33987 6.43078 1.22266 6.60655C1.10963 6.7761 1.00003 7.04726 1 7.49718V11.4972C1 11.9471 1.10964 12.2182 1.22266 12.3878C1.33986 12.5636 1.50342 12.6932 1.69727 12.7901C1.89492 12.889 2.10461 12.9436 2.27344 12.9718C2.3555 12.9855 2.42209 12.9922 2.46387 12.9952C2.48417 12.9967 2.49822 12.997 2.50488 12.9972H4.74121C5.08093 12.9972 5.41493 13.0842 5.71191 13.2491L13 17.298V1.6964L5.71191 5.74523ZM21.3555 7.35558L19.209 9.50206L21.3555 11.6485L20.6484 12.3556L18.502 10.2091L16.3555 12.3556L15.6484 11.6485L17.7949 9.50206L15.6484 7.35558L16.3555 6.64855L18.502 8.79503L20.6484 6.64855L21.3555 7.35558Z" fill="white"/>
</g>
</svg>
